<svg width="19" height="19" viewBox="0 0 19 19" fill="none" xmlns="http://www.w3.org/2000/svg">
<path d="M0.857422 0.832031H2.5416C3.29396 0.832031 3.67014 0.832031 3.95336 1.03634C4.23658 1.24064 4.35549 1.59737 4.59331 2.31082L5.18136 4.07499" stroke="#FFFFFF" stroke-width="1.5" stroke-linecap="round"/>
<path d="M15.9922 14.8846H5.77685C5.6201 14.8846 5.54119 14.8846 5.48066 14.8781C5.33056 14.8613 5.18565 14.8133 5.05524 14.7371C4.92484 14.661 4.81185 14.5583 4.72355 14.4358C4.63525 14.3133 4.5736 14.1736 4.54258 14.0258C4.51156 13.878 4.51185 13.7253 4.54344 13.5776C4.5684 13.482 4.59761 13.3875 4.631 13.2944C4.68721 13.128 4.71424 13.0447 4.74559 12.9701C4.89947 12.6016 5.15243 12.2828 5.47643 12.0493C5.80043 11.8157 6.18279 11.6765 6.5811 11.647C6.66109 11.6416 6.74865 11.6416 6.92377 11.6416H12.7492" stroke="#FFFFFF" stroke-width="1.5" stroke-linecap="round" stroke-linejoin="round"/>
<path d="M12.4009 11.6421H9.11367C7.73001 11.6421 7.03818 11.6421 6.49769 11.2854C5.95612 10.9286 5.68371 10.293 5.13889 9.02178L4.95621 8.59587C4.08061 6.55281 3.64389 5.53344 4.12385 4.80378C4.60597 4.0752 5.71722 4.0752 7.93756 4.0752H13.6452C16.1314 4.0752 17.3735 4.0752 17.8426 4.88269C18.3107 5.69019 17.6945 6.76901 16.4611 8.92666L16.1552 9.4639C15.5477 10.5265 15.2439 11.0584 14.7402 11.3502C14.2375 11.6421 13.6246 11.6421 12.4009 11.6421Z" stroke="#FFFFFF" stroke-width="1.5" stroke-linecap="round"/>
<path d="M15.4501 18.6678C16.0471 18.6678 16.5311 18.1839 16.5311 17.5868C16.5311 16.9898 16.0471 16.5059 15.4501 16.5059C14.8531 16.5059 14.3691 16.9898 14.3691 17.5868C14.3691 18.1839 14.8531 18.6678 15.4501 18.6678Z" fill="#FFFFFF"/>
<path d="M5.72161 18.6678C6.31862 18.6678 6.8026 18.1839 6.8026 17.5868C6.8026 16.9898 6.31862 16.5059 5.72161 16.5059C5.1246 16.5059 4.64062 16.9898 4.64062 17.5868C4.64062 18.1839 5.1246 18.6678 5.72161 18.6678Z" fill="#FFFFFF"/>
</svg>
