<svg width="30" height="30" viewBox="0 0 30 30" fill="none" xmlns="http://www.w3.org/2000/svg">
<path d="M15 17.6667L13.6667 19M17.3333 23.3333L15.6667 25.2267M22.7 6.53867C18.7284 7.37305 15.0855 9.34531 12.2157 12.2149C9.34594 15.0844 7.37338 18.7271 6.53867 22.6987M24.0667 11.4C22.7052 11.7713 21.547 12.6682 20.8469 13.8935C20.1468 15.1187 19.962 16.5719 20.3333 17.9333C20.7046 19.2948 21.6016 20.453 22.8268 21.1531C24.052 21.8532 25.5052 22.038 26.8667 21.6667M28.2853 26.6427C28.3489 26.8704 28.3507 27.1109 28.2907 27.3395C28.2308 27.5682 28.111 27.7767 27.9439 27.9439C27.7767 28.111 27.5682 28.2308 27.3395 28.2907C27.1109 28.3507 26.8704 28.3489 26.6427 28.2853L2.64267 21.6187C2.47395 21.5717 2.31613 21.4919 2.17824 21.3839C2.04035 21.276 1.92509 21.1419 1.83903 20.9893C1.75298 20.8368 1.69782 20.6688 1.67671 20.4949C1.6556 20.321 1.66896 20.1447 1.71601 19.976C2.927 15.6163 5.24479 11.6438 8.44429 8.44429C11.6438 5.24479 15.6163 2.927 19.976 1.71601C20.1447 1.66896 20.321 1.6556 20.4949 1.67671C20.6688 1.69782 20.8368 1.75298 20.9893 1.83903C21.1419 1.92509 21.276 2.04035 21.3839 2.17824C21.4919 2.31613 21.5717 2.47395 21.6187 2.64267L28.2853 26.6427Z" stroke="#99a1af" stroke-width="2" stroke-linecap="round" stroke-linejoin="round"/>
</svg>
