<svg width="18" height="18" viewBox="0 0 18 18" fill="none" xmlns="http://www.w3.org/2000/svg">
<path d="M15.8887 0C16.9932 0 17.8887 0.895431 17.8887 2V16C17.8887 17.1046 16.9932 18 15.8887 18H7.09277C6.72025 17.9998 6.41807 17.6978 6.41797 17.3252C6.41797 16.9525 6.72018 16.6506 7.09277 16.6504H16.0654C16.3414 16.6503 16.5652 16.4263 16.5654 16.1504V1.84961C16.5652 1.5737 16.3414 1.34969 16.0654 1.34961H7.09277C6.72018 1.34937 6.41797 1.04745 6.41797 0.674805C6.41807 0.302249 6.72025 0.000237287 7.09277 0H15.8887ZM4.11621 5.18457C4.38795 4.90748 4.83474 4.90743 5.10645 5.18457L8.16016 8.2998C8.54139 8.68867 8.54139 9.31133 8.16016 9.7002L5.10645 12.8154C4.83474 13.0926 4.38795 13.0925 4.11621 12.8154C3.85199 12.5459 3.852 12.1142 4.11621 11.8447L6.28809 9.62988H0.741211C0.393272 9.62988 0.111328 9.34794 0.111328 9C0.111328 8.65206 0.393272 8.37012 0.741211 8.37012H6.28809L4.11621 6.15527C3.852 5.88576 3.85199 5.45408 4.11621 5.18457Z" fill="#FFFFFF"/>
</svg>
